# xmcd
# 
# Track frame offsets:
#     150
#     15762
#     28487
#     38662
#     49712
#     63362
#     73925
#     86637
#     99050
#     110625
#     125975
#     137750
#     157187
#     184275
#     200600
#     212612
#     225150
#     236800
#     247237
# 
# Disc length: 3479
# 
# Revision: 2
# Processed by: cddbd v1.5.2PL0 Copyright (c) Steve Scherf et al.
# Submitted via: BonkEnc v1.0.8
# 
DISCID=130d9513
DTITLE=Various Artist - Unforgettable
DYEAR=0
DGENRE=Easy Listening
TTITLE0=Nat King Cole - Unforgettable
TTITLE1=Judy Garland - Over The Rainbow
TTITLE2=Pat Boone - Love Letters In The Sand
TTITLE3=Paul Anka - Diana
TTITLE4=Louis Armstrong - Dream A Little Dream Of Me
TTITLE5=Fats Domino - Blueberry Hill
TTITLE6=Shirley Bassey - Goldfinger
TTITLE7=Dean Martin - Everybody Loves Somebody
TTITLE8=Sammy Davis Jr. - My Funny Valentine
TTITLE9=Marlene Dietrich - Lili Marleen
TTITLE10=Jerry Butler - Moon River
TTITLE11=Ella Fitzgerald and Cole Porter - I Get A Kick Out Of You
TTITLE12=Count Basie and His Orchestra - Satin Doll
TTITLE13=Nina Simone - My Baby Just Cares For Me
TTITLE14=Paul Anka - Put Your Head On My Shoulder
TTITLE15=Al Martino - Spanish Eyes
TTITLE16=The Platters - Only You
TTITLE17=Louis Armstrong - What A Wonderful World
TTITLE18=The Andrew Sisters - Bei mir bist du schön (Means The You're Grand)
EXTD=
EXTT0=
EXTT1=
EXTT2=
EXTT3=
EXTT4=
EXTT5=
EXTT6=
EXTT7=
EXTT8=
EXTT9=
EXTT10=
EXTT11=
EXTT12=
EXTT13=
EXTT14=
EXTT15=
EXTT16=
EXTT17=
EXTT18=
PLAYORDER=
